<?xml version="1.0" encoding="iso-8859-1"?>
<!-- Generator: Adobe Illustrator 19.0.0, SVG Export Plug-In . SVG Version: 6.00 Build 0)  -->
<svg version="1.1" id="Capa_1" xmlns="http://www.w3.org/2000/svg" xmlns:xlink="http://www.w3.org/1999/xlink" x="0px" y="0px"
	 viewBox="0 0 511.999 511.999" style="enable-background:new 0 0 511.999 511.999;" xml:space="preserve">
<path style="fill:#29ABE2;" d="M170.671,460.789c0,23.559,19.105,42.665,42.665,42.665S256,484.349,256,460.789
	c0,23.559,19.105,42.665,42.665,42.665s42.665-19.105,42.665-42.665c32.988,0,59.73-26.742,59.73-59.73l0.085-0.597
	c32.655,4.668,62.913-18.022,67.581-50.677c1.604-11.204-0.009-22.629-4.65-32.946c28.884-15.931,39.388-52.264,23.457-81.148
	c-6.946-12.595-18.201-22.262-31.7-27.22c20.88-25.539,17.091-63.169-8.448-84.049c-10.666-8.721-24.02-13.482-37.792-13.482
	c-0.026-33.014-26.802-59.756-59.816-59.73c-2.824,0-5.649,0.205-8.448,0.606V51.21c0-23.559-19.105-42.665-42.665-42.665
	S256,27.651,256,51.21c0-23.559-19.105-42.665-42.665-42.665s-42.665,19.105-42.665,42.665c-32.988,0-59.73,26.742-59.73,59.73
	l-0.085,0.589c-2.799-0.393-5.623-0.589-8.448-0.589c-32.988-0.009-59.739,26.725-59.747,59.713c0,8.456,1.792,16.818,5.265,24.532
	c-28.884,15.931-39.388,52.264-23.457,81.148c6.946,12.595,18.201,22.262,31.7,27.22c-20.863,25.556-17.057,63.178,8.49,84.041
	c10.658,8.704,23.986,13.456,37.75,13.465c0.026,33.014,26.802,59.756,59.816,59.73c2.824,0,5.649-0.205,8.448-0.606"/>
<path style="fill:#0071BC;" d="M8.545,247.467c0.068,24.694,13.414,47.451,34.934,59.568c-19.003,32.442-8.115,74.151,24.336,93.162
	c8.149,4.77,17.194,7.799,26.571,8.883c4.096,34.328,33.184,60.191,67.751,60.242c0.256,0,0.503-0.051,0.759-0.051
	c4.642,27.851,30.983,46.666,58.843,42.025c14.02-2.338,26.435-10.402,34.26-22.262c15.564,23.559,47.281,30.044,70.84,14.48
	c11.98-7.91,20.078-20.496,22.322-34.678c31.188-3.652,55.882-28.09,59.841-59.244c0.196,0,0.393,0.043,0.589,0.043
	c37.698,0.009,68.272-30.548,68.28-68.246c0-7.168-1.126-14.301-3.345-21.119c30.795-21.665,38.193-64.185,16.528-94.98
	c-5.888-8.362-13.576-15.299-22.501-20.283c19.028-32.434,8.157-74.151-24.276-93.179c-8.175-4.796-17.254-7.833-26.665-8.908
	c-4.096-34.328-33.184-60.191-67.751-60.242c-0.256,0-0.503,0.051-0.759,0.051c-4.642-27.851-30.983-46.666-58.843-42.025
	C276.24,3.042,263.824,11.105,256,22.966c-15.564-23.559-47.281-30.044-70.84-14.48c-11.98,7.91-20.078,20.496-22.322,34.678
	c-31.205,3.652-55.899,28.116-59.841,59.287c-0.196,0-0.393-0.043-0.589-0.043c-37.707-0.009-68.272,30.548-68.28,68.246
	c0,7.168,1.126,14.301,3.345,21.119C19.348,204.529,8.562,225.298,8.545,247.467z M76.809,196.269v-17.066
	c-8.166,0.017-16.255,1.502-23.892,4.403c-7.244-27.229,8.96-55.174,36.188-62.418c4.343-1.152,8.814-1.732,13.303-1.715
	c0.179,0,0.358,0,0.546,0c2.517,20.522,14.25,38.782,31.879,49.593l8.968-14.506c-24.063-14.847-31.538-46.393-16.682-70.456
	c7.893-12.791,21.017-21.469,35.872-23.73c2.039,11.187,7.739,21.383,16.213,28.969l11.383-12.714
	c-14.054-12.56-15.257-34.14-2.696-48.194s34.14-15.257,48.194-2.696c7.253,6.485,11.391,15.743,11.383,25.471v17.066h17.066V51.21
	c0-18.849,15.282-34.132,34.132-34.132s34.132,15.282,34.132,34.132c0,10.743-5.06,20.863-13.653,27.305l10.239,13.653
	c10.495-7.842,17.544-19.438,19.677-32.365c0.265,0,0.529-0.06,0.794-0.06c25.215,0.026,46.658,18.414,50.532,43.33
	c-3.481,0.452-6.929,1.178-10.299,2.159l4.864,16.366c27.1-8.064,55.609,7.372,63.673,34.473s-7.372,55.609-34.473,63.673
	c-4.719,1.408-9.625,2.116-14.549,2.125c-7.586,0.017-15.086-1.664-21.938-4.923l-7.321,15.41
	c26.128,12.39,57.222,6.963,77.607-13.55c25.3,12.518,35.668,43.176,23.15,68.477c-8.635,17.45-26.426,28.483-45.899,28.449v17.066
	c8.166-0.017,16.255-1.502,23.892-4.403c7.244,27.229-8.96,55.174-36.188,62.418c-4.343,1.152-8.815,1.732-13.303,1.715
	c-0.179,0-0.358,0-0.546,0c-2.517-20.522-14.25-38.782-31.879-49.593l-8.968,14.506c24.063,14.847,31.538,46.393,16.682,70.456
	c-7.893,12.791-21.017,21.469-35.872,23.73c-2.039-11.187-7.739-21.383-16.213-28.969l-11.383,12.714
	c14.054,12.56,15.257,34.14,2.696,48.194c-12.56,14.054-34.14,15.257-48.194,2.696c-7.253-6.485-11.391-15.743-11.383-25.471
	v-17.066h-17.066v17.066c0,18.849-15.282,34.132-34.132,34.132s-34.132-15.282-34.132-34.132c0-10.743,5.06-20.863,13.653-27.305
	l-10.24-13.653c-10.495,7.842-17.544,19.438-19.677,32.365c-0.265,0-0.529,0.06-0.794,0.06
	c-25.215-0.026-46.658-18.414-50.532-43.33c3.481-0.452,6.929-1.178,10.299-2.159l-4.864-16.366
	c-27.101,8.064-55.609-7.372-63.673-34.473c-8.064-27.1,7.372-55.609,34.473-63.673c4.719-1.408,9.625-2.116,14.549-2.125
	c7.586-0.017,15.086,1.664,21.938,4.923l7.321-15.41c-26.128-12.39-57.222-6.963-77.607,13.55
	c-25.3-12.518-35.668-43.176-23.15-68.477C39.537,207.268,57.337,196.235,76.809,196.269z"/>
<path style="fill:#B3B3B3;" d="M76.809,443.724c-38.04,0-76.796-38.756-76.796-76.796h17.066c0,28.474,31.256,59.73,59.73,59.73
	V443.724z"/>
<path style="fill:#FBB03B;" d="M358.395,213.335c0.051-56.548-45.745-102.438-102.301-102.489
	c-56.548-0.051-102.438,45.745-102.489,102.301c-0.034,36.615,19.489,70.465,51.197,88.776v30.881h102.395v-30.881
	C338.863,283.655,358.386,249.89,358.395,213.335z"/>
<g>
	<path style="fill:#F7931E;" d="M196.269,213.335h-17.066c0.026-32.536,20.53-61.539,51.197-72.419l5.683,16.076
		C212.234,165.465,196.295,188.026,196.269,213.335z"/>
	<path style="fill:#F7931E;" d="M262.647,153.972c-4.42-0.486-8.874-0.486-13.294,0l-1.886-16.963
		c5.674-0.623,11.391-0.623,17.066,0L262.647,153.972z"/>
</g>
<polygon style="fill:#FFFFFF;" points="296.164,244.967 284.098,232.901 256,261 227.901,232.901 215.835,244.967 247.467,276.598 
	247.467,332.796 264.533,332.796 264.533,276.598 "/>
<path style="fill:#8C6239;" d="M204.802,332.796h102.395c9.429,0,17.066,7.637,17.066,17.066l0,0
	c0,9.429-7.637,17.066-17.066,17.066H204.802c-9.429,0-17.066-7.637-17.066-17.066l0,0
	C187.736,340.433,195.373,332.796,204.802,332.796z"/>
<path style="fill:#A67C52;" d="M204.802,366.927h102.395c9.429,0,17.066,7.637,17.066,17.066l0,0
	c0,9.429-7.637,17.066-17.066,17.066H204.802c-9.429,0-17.066-7.637-17.066-17.066l0,0
	C187.736,374.564,195.373,366.927,204.802,366.927z"/>
<g>
	<rect x="0.012" y="332.779" style="fill:#B3B3B3;" width="17.066" height="17.066"/>
	<path style="fill:#B3B3B3;" d="M511.987,145.072h-17.066c0-28.474-31.256-59.73-59.73-59.73V68.276
		C473.23,68.276,511.987,107.032,511.987,145.072z"/>
	<rect x="494.904" y="162.121" style="fill:#B3B3B3;" width="17.066" height="17.066"/>
</g>
<g>
</g>
<g>
</g>
<g>
</g>
<g>
</g>
<g>
</g>
<g>
</g>
<g>
</g>
<g>
</g>
<g>
</g>
<g>
</g>
<g>
</g>
<g>
</g>
<g>
</g>
<g>
</g>
<g>
</g>
</svg>
