<svg id="color" enable-background="new 0 0 24 24" height="512" viewBox="0 0 24 24" width="512" xmlns="http://www.w3.org/2000/svg"><path d="m19.999 7.49c-.006-.823-.674-1.49-1.499-1.49-.828 0-1.5.671-1.5 1.5s.672 1.5 1.5 1.5c.274 0 .527-.079.748-.207 1.547 1.064 2.502 2.834 2.502 4.707 0 .414.336.75.75.75s.75-.336.75-.75c0-2.405-1.244-4.676-3.251-6.01z" fill="#ffc107"/><path d="m17.204 6.745c-.13.221-.204.479-.204.755 0 .829.672 1.5 1.5 1.5.274 0 .527-.079.748-.207 1.547 1.064 2.502 2.834 2.502 4.707 0 .414.336.75.75.75.015 0 .03 0 .044-.001.208-3.552-2.383-6.514-5.34-7.504z" fill="#dea806"/><path d="m16.25 24h-8.5c-.37 0-.685-.27-.741-.636l-1-6.5c-.071-.457.284-.864.741-.864h10.5c.457 0 .812.407.741.864l-1 6.5c-.056.366-.371.636-.741.636z" fill="#90a4ae"/><path d="m12 8c-2.206 0-4-1.794-4-4s1.794-4 4-4 4 1.794 4 4-1.794 4-4 4z" fill="#2196f3"/><path d="m19.94 13c-.36-2.26-2.32-4-4.69-4h-6.5c-2.37 0-4.33 1.74-4.69 4-.029.17-.04.33-.05.5h15.98c-.01-.17-.02-.33-.05-.5z" fill="#2196f3"/><path d="m23.96 14.01-2 5.5c-.11.29-.39.49-.71.49h-18.5c-.32 0-.6-.2-.71-.49l-2-5.5c-.164-.472.18-1.01.71-1.01h22.5c.53 0 .874.538.71 1.01z" fill="#607d8b"/><path d="m12 20h-5.509l.518 3.364c.056.366.371.636.741.636h4.25z" fill="#7d8f97"/><path d="m12 0c-2.206 0-4 1.794-4 4s1.794 4 4 4z" fill="#1d83d4"/><path d="m12 9h-3.25c-2.37 0-4.33 1.74-4.69 4h7.94z" fill="#1d83d4"/><path d="m12 13h-7.94-3.31c-.53 0-.874.538-.71 1.01l2 5.5c.11.29.39.49.71.49h3.741 5.509z" fill="#546d79"/></svg>